<?xml version="1.0" encoding="UTF-8"?>
<!DOCTYPE svg PUBLIC "-//W3C//DTD SVG 1.1//EN" "http://www.w3.org/Graphics/SVG/1.1/DTD/svg11.dtd">
<!-- Creator: CorelDRAW X8 -->
<svg xmlns="http://www.w3.org/2000/svg" xml:space="preserve" width="18.2033mm" height="18.2034mm" version="1.1" style="shape-rendering:geometricPrecision; text-rendering:geometricPrecision; image-rendering:optimizeQuality; fill-rule:evenodd; clip-rule:evenodd"
viewBox="0 0 210 210"
 xmlns:xlink="http://www.w3.org/1999/xlink">
 <defs>
  <style type="text/css">
   <![CDATA[
    .fil0 {fill:url(#id0)}
   ]]>
  </style>
  <linearGradient id="id0" gradientUnits="userSpaceOnUse" x1="-0" y1="104.888" x2="209.775" y2="104.888">
   <stop offset="0" style="stop-opacity:1; stop-color:#1ED760"/>
   <stop offset="1" style="stop-opacity:1; stop-color:#08FF77"/>
  </linearGradient>
 </defs>
 <g id="Camada_x0020_1">
  <metadata id="CorelCorpID_0Corel-Layer"/>
  <path class="fil0" d="M0 0l210 0 0 210 -210 0 0 -210zm161 184c-3,0 -5,0 -8,-1 -3,0 -5,-1 -8,-2 -2,-1 -4,-3 -6,-5l0 0 5 -6 0 0c3,2 5,3 8,4 3,1 6,2 9,2 5,0 8,-1 11,-3 2,-1 4,-4 4,-7l0 0c0,-2 -1,-4 -2,-5 -1,-1 -3,-2 -4,-3 -2,0 -4,-1 -7,-1 0,0 0,0 -1,0 0,0 0,0 0,0l-1 -1c-4,0 -7,-1 -10,-2 -2,-1 -4,-2 -6,-5 -2,-2 -3,-6 -3,-10l0 0c0,-4 1,-7 2,-10 2,-3 5,-5 8,-6 3,-2 7,-2 12,-2 2,0 4,0 6,0 3,1 5,2 7,3 2,1 4,2 6,3l0 0 -5 7 0 0c-2,-2 -5,-3 -7,-4 -2,-1 -5,-1 -7,-1 -4,0 -8,1 -10,2 -2,2 -3,5 -3,8l0 0c0,2 0,4 1,5 2,1 3,2 5,2 2,1 4,2 7,2 1,0 1,0 1,0 0,0 0,0 0,0 0,0 0,0 1,1 0,0 0,0 0,0 4,0 7,1 9,2 3,1 5,3 7,5 1,3 2,6 2,10l0 0c0,4 -1,7 -2,10 -2,3 -5,5 -8,6 -4,1 -8,2 -13,2z"/>
 </g>
</svg>
